# xmcd
#
# Track frame offsets:
#  150
#  20592
#  54007
#
# Disc length: 1171 seconds
#
# Revision: 0
# Processed by: cddbd v1.5.1PL0 Copyright (c) Steve Scherf et al.
# Submitted via: Collectorz.com_Music_Collector 6.9
#
DISCID=18049103
DTITLE=Janet Jackson - Black Cat
DYEAR=1990
DGENRE=
TTITLE0=Black Cat
TTITLE1=The 1814 Megamix [Full Version]
TTITLE2=Black Cat ["3 Snaps Up" 12" Mix]
EXTD=
EXTT0=
EXTT1=
EXTT2=
PLAYORDER=
